<svg xmlns="http://www.w3.org/2000/svg" viewBox="0 0 182.001 180.326" fill="none">
    <g>
        <path d="M160.343 0.326093C163.377 0.405896 166.34 0.697819 169.099 1.04122C175.82 1.87793 181.269 7.66073 181.46 14.4318C181.723 23.725 182.001 38.8615 182.001 61.3267C182.001 82.7297 181.749 96.9765 181.498 105.858C181.302 112.777 175.61 117.518 168.695 117.199C167.16 117.128 165.401 117.079 163.343 117.067C70.9547 118.067 2.43761 125.578 2.43761 148.41L0.437608 38.6692C3.43761 16.8368 71.9454 -2.78428 160.343 0.326093Z" fill="#2BD6FF"/>
        <g>
            <path d="M0.437608 36.3264C0.43917 49.7924 22.6889 61.7554 57.1516 69.3215C78.6708 74.0459 95.4376 92.051 95.4376 114.083C95.4376 118.945 95.4376 124.345 95.4376 130.327C95.4376 147.393 95.4376 158.879 95.4376 166.488C95.4376 173.99 89.0977 179.96 81.6529 179.034C67.5695 177.282 53.6739 174.235 39.4376 169.985C17.576 162.685 1.4382 153.519 1.43761 147.325L0.437608 36.3264Z" fill="#FF217A"/>
        </g>
        <g>
            <path d="M0.444444 39.3264C1.38068 49.7541 34.2733 62.169 83.7579 73.4543C90.0576 74.891 94.6684 80.2779 94.8556 86.7366C95.0597 93.7813 95.2825 104.466 95.3839 119.448C38.1309 125.194 2.07676 137.138 1.44444 148.41C1.44399 148.408 1.43754 148.371 1.42394 148.294C1.37158 143.355 1.17711 129.748 0.444444 97.0617C-0.555112 52.4692 0.443558 39.338 0.444444 39.3264Z" fill="#3245EE"/>
        </g>
    </g>
</svg>
